<?xml version="1.0" encoding="UTF-8" standalone="no"?>
<svg width="90px" height="90px" viewBox="0 0 90 90" version="1.1" xmlns="http://www.w3.org/2000/svg" xmlns:xlink="http://www.w3.org/1999/xlink">
    <!-- Generator: Sketch 48.2 (47327) - http://www.bohemiancoding.com/sketch -->
    <title>avatar@90</title>
    <desc>Created with Sketch.</desc>
    <defs></defs>
    <g id="Content-Components" stroke="none" stroke-width="1" fill="none" fill-rule="evenodd" transform="translate(-130.000000, -219.000000)">
        <g id="1---User-Avatars" transform="translate(54.000000, 134.000000)">
            <g id="avatar@90" transform="translate(76.000000, 85.000000)">
                <circle id="Oval" fill="#AEAEAE" cx="45" cy="45" r="45"></circle>
                <path d="M56.25,35.25 C56.25,41.475 51.225,46.5 45,46.5 C38.775,46.5 33.75,41.475 33.75,35.25 C33.75,29.025 38.775,24 45,24 C51.225,24 56.25,29.025 56.25,35.25 L56.25,35.25 Z M22.5,60.75 C22.5,53.25 37.5,49.125 45,49.125 C52.5,49.125 67.5,53.25 67.5,60.75 L67.5,64.5 L22.5,64.5 L22.5,60.75 L22.5,60.75 Z" id="Shape" fill="#FFFFFF"></path>
            </g>
        </g>
    </g>
</svg>