<?xml version="1.0" encoding="UTF-8" standalone="no"?>
<svg width="90px" height="90px" viewBox="0 0 90 90" version="1.1" xmlns="http://www.w3.org/2000/svg" xmlns:xlink="http://www.w3.org/1999/xlink">
    <!-- Generator: Sketch 48.2 (47327) - http://www.bohemiancoding.com/sketch -->
    <title>Avatar-sq@90</title>
    <desc>Created with Sketch.</desc>
    <defs></defs>
    <g id="Content-Components" stroke="none" stroke-width="1" fill="none" fill-rule="evenodd" transform="translate(-528.000000, -219.000000)">
        <g id="1---User-Avatars" transform="translate(54.000000, 134.000000)">
            <g id="Avatar-sq@90" transform="translate(474.000000, 85.000000)">
                <rect id="bg" fill="#EFEFEF" x="0" y="0" width="90" height="90" rx="3"></rect>
                <path d="M69.925,61.13 L69.925,66.5625 L45.8375,66.5625 L21.75,66.5625 L21.75,61.13 C21.75,59.4216581 25.2349652,57.3375123 32.205,54.8775 C35.4166827,53.7158275 37.6033275,52.5370893 38.765,51.34125 C39.9266725,50.1454107 40.5075,48.5225102 40.5075,46.4725 C40.5075,45.7208296 40.1316704,44.8837546 39.38,43.96125 C38.6283296,43.0387454 38.0816684,41.7916745 37.74,40.22 C37.6716663,39.8099979 37.5179179,39.502501 37.27875,39.2975 C37.0395821,39.092499 36.8004179,38.9558337 36.56125,38.8875 C36.3220821,38.8191663 36.0829179,38.5287526 35.84375,38.01625 C35.6045821,37.5037474 35.4508337,36.7691715 35.3825,35.8125 C35.3825,35.2658306 35.4679158,34.8216684 35.63875,34.48 C35.8095842,34.1383316 35.9633326,33.9333337 36.1,33.865 L36.305,33.66 C36.0316653,31.9516581 35.8266673,30.4483398 35.69,29.15 C35.5533326,27.3049908 36.2537423,25.3916766 37.79125,23.41 C39.3287577,21.4283234 42.0108142,20.4375 45.8375,20.4375 C49.6641858,20.4375 52.3633255,21.4283234 53.935,23.41 C55.5066745,25.3916766 56.190001,27.3049908 55.985,29.15 L55.37,33.66 C55.9850031,33.9333347 56.2925,34.6508275 56.2925,35.8125 C56.2241663,36.7691715 56.0704179,37.5037474 55.83125,38.01625 C55.5920821,38.5287526 55.3529179,38.8191663 55.11375,38.8875 C54.8745821,38.9558337 54.6354179,39.092499 54.39625,39.2975 C54.1570821,39.502501 54.0033337,39.8099979 53.935,40.22 C53.6616653,41.8600082 53.1320873,43.1241622 52.34625,44.0125 C51.5604127,44.9008378 51.1675,45.7208296 51.1675,46.4725 C51.1675,48.5225102 51.7654107,50.1454107 52.96125,51.34125 C54.1570893,52.5370893 56.3266509,53.7158275 59.47,54.8775 C66.4400349,57.3375123 69.925,59.4216581 69.925,61.13 Z" id="shape" fill="#AEAEAE"></path>
            </g>
        </g>
    </g>
</svg>