<?xml version="1.0" encoding="UTF-8" standalone="no"?>
<svg width="180px" height="180px" viewBox="0 0 180 180" version="1.1" xmlns="http://www.w3.org/2000/svg" xmlns:xlink="http://www.w3.org/1999/xlink">
    <!-- Generator: Sketch 48.2 (47327) - http://www.bohemiancoding.com/sketch -->
    <title>Image@16:9</title>
    <desc>Created with Sketch.</desc>
    <defs></defs>
    <g id="Content-Components" stroke="none" stroke-width="1" fill="none" fill-rule="evenodd" transform="translate(-54.000000, -412.000000)">
        <g id="2---Images-&amp;-Videos" transform="translate(54.000000, 357.000000)">
            <g id="Image@16:9" transform="translate(0.000000, 55.000000)">
                <rect id="Rectangle" fill="#EAEAEA" x="0" y="0" width="180" height="180"></rect>
                <g id="Icon---Image" transform="translate(52.000000, 66.000000)" fill="#AEAEAE">
                    <path d="M73.1020747,45.1464789 L54.4942739,22.7352113 C53.8808299,22.0253521 52.9606639,21.5183099 51.8360166,21.5183099 C50.81361,21.5183099 49.7912033,22.0253521 49.1777593,22.7352113 L46.7239834,25.6760563 C46.6217427,25.7774648 46.5195021,25.9802817 46.4172614,26.0816901 C45.8038174,26.6901408 44.9858921,27.0957746 44.0657261,27.0957746 C43.1455602,27.0957746 42.4298755,26.7915493 41.8164315,26.1830986 C41.6119502,25.9802817 41.4074689,25.7774648 41.3052282,25.5746479 L32.2058091,14.6225352 C31.3878838,13.6084507 30.1609959,13 28.7296266,13 C27.2982573,13 26.0713693,13.6084507 25.253444,14.6225352 L0.920165975,43.9295775 L0.51120332,44.4366197 C0.204481328,44.943662 0,45.4507042 0,46.0591549 C0,47.6816901 1.32912863,49 2.96497925,49 L2.96497925,49 L9.81510373,49 L12.0643983,49 L12.5756017,49 L32.3080498,49 L37.5223237,49 L39.2604149,49 L39.6693776,49 L54.4942739,49 L64.3093776,49 L64.7183402,49 L67.8878008,49 L71.6707054,49 C72.8975934,49 73.92,47.9859155 73.92,46.7690141 C73.92,46.2619718 73.8177593,45.856338 73.5110373,45.4507042 L73.1020747,45.1464789 L73.1020747,45.1464789 Z" id="Shape"></path>
                    <path d="M68.2733333,0 C64.0541553,0 60.5733333,3.39041096 60.5733333,7.5 C60.5733333,11.609589 64.0541553,15 68.2733333,15 C72.4925114,15 75.9733333,11.609589 75.9733333,7.5 C75.9733333,3.39041096 72.4925114,0 68.2733333,0 L68.2733333,0 Z" id="Shape"></path>
                </g>
            </g>
        </g>
    </g>
</svg>